<svg xmlns="http://www.w3.org/2000/svg" viewBox="0 0 310.62 311.16" preserveAspectRatio="xMinYMin meet"><defs><style>.cls-1{fill:none;}.cls-1,.cls-2{stroke:#fff;stroke-miterlimit:10;stroke-width:0.5px;}.cls-2{fill:#fff;}</style></defs><title>Asset 2</title><g id="Layer_2" data-name="Layer 2"><g id="white_version" data-name="white version"><path class="cls-1" d="M279.35,204.84a135.41,135.41,0,0,1-78.23,76.38"/><path class="cls-1" d="M213.56,33.49a135.27,135.27,0,0,1,70.2,83.87"/><path class="cls-1" d="M28.2,105.49a135.24,135.24,0,0,1,94.48-82.18"/><path class="cls-1" d="M111.71,282.94a135.34,135.34,0,0,1-86-86.11"/><line class="cls-1" x1="3.82" y1="197.76" x2="38.45" y2="196.28"/><line class="cls-1" x1="37.43" y1="141.48" x2="38.44" y2="195.95"/><line class="cls-1" x1="4.15" y1="197.75" x2="0.25" y2="106.39"/><line class="cls-1" x1="56.36" y1="104.99" x2="0.24" y2="106.06"/><line class="cls-1" x1="37.43" y1="141.48" x2="58.21" y2="140.59"/><line class="cls-1" x1="56.36" y1="104.99" x2="57.87" y2="140.28"/><line class="cls-1" x1="46.8" y1="190.64" x2="38.45" y2="196.28"/><line class="cls-1" x1="50.17" y1="176.62" x2="38.44" y2="180.43"/><line class="cls-1" x1="46.79" y1="190.31" x2="46.25" y2="177.78"/><line class="cls-1" x1="49.9" y1="170.35" x2="50.18" y2="176.95"/><line class="cls-1" x1="87.67" y1="165.11" x2="43.81" y2="166.98"/><line class="cls-1" x1="43.08" y1="149.83" x2="87.6" y2="147.93"/><path class="cls-1" d="M87.34,165.12a37.77,37.77,0,0,0-.07-17.18"/><line class="cls-1" x1="87.27" y1="147.94" x2="91.72" y2="143.79"/><line class="cls-1" x1="87.34" y1="165.12" x2="92.1" y2="168.22"/><line class="cls-1" x1="43.81" y1="166.98" x2="49.74" y2="170.12"/><line class="cls-1" x1="92.1" y1="168.22" x2="49.56" y2="170.04"/><line class="cls-1" x1="57.22" y1="140.63" x2="65.11" y2="139.64"/><line class="cls-1" x1="56.36" y1="104.99" x2="63.73" y2="107.32"/><line class="cls-1" x1="65.11" y1="139.64" x2="63.73" y2="107.32"/><line class="cls-1" x1="43.74" y1="149.8" x2="49.5" y2="145.59"/><line class="cls-1" x1="91.72" y1="143.79" x2="49.17" y2="145.6"/><path class="cls-1" d="M43.08,149.83c1.09,0,2.19,4.78,2.37,9.15s-.55,8-1.64,8-2.13-3.46-2.32-7.83S42,149.88,43.08,149.83Z"/><path class="cls-1" d="M40.47,181.66"/><ellipse class="cls-1" cx="42.12" cy="158.46" rx="0.66" ry="5.94" transform="translate(-6.72 1.94) rotate(-2.45)"/><line class="cls-1" x1="49.49" y1="145.26" x2="49.32" y2="141.3"/><line class="cls-1" x1="43.37" y1="141.23" x2="37.46" y2="142.14"/><polygon class="cls-1" points="47.13 136.44 37.24 136.86 37.36 124.3 46.59 123.91 47.13 136.44"/><path class="cls-1" d="M60.07,153.07"/><path class="cls-1" d="M56,157.54"/><path class="cls-1" d="M64.54,157.17"/><line class="cls-1" x1="92.1" y1="168.22" x2="91.73" y2="144.02"/><line class="cls-1" x1="201.09" y1="306.3" x2="201.14" y2="272.76"/><line class="cls-1" x1="147.66" y1="273.73" x2="200.97" y2="272.61"/><line class="cls-1" x1="201.09" y1="306.3" x2="112.57" y2="310.91"/><line class="cls-1" x1="111.16" y1="254.8" x2="112.24" y2="310.92"/><line class="cls-1" x1="147.66" y1="273.73" x2="146.77" y2="252.95"/><line class="cls-1" x1="111.16" y1="254.8" x2="146.45" y2="253.29"/><line class="cls-1" x1="194.56" y1="261.65" x2="201.14" y2="272.76"/><line class="cls-1" x1="181.85" y1="258.22" x2="186.6" y2="272.72"/><line class="cls-1" x1="194.56" y1="261.65" x2="183.01" y2="262.14"/><line class="cls-1" x1="176.25" y1="258.46" x2="181.85" y2="258.22"/><line class="cls-1" x1="171.28" y1="223.49" x2="173.16" y2="267.35"/><line class="cls-1" x1="155.18" y1="267.95" x2="154.11" y2="223.56"/><path class="cls-1" d="M171.3,223.82a37.77,37.77,0,0,0-17.18.07"/><line class="cls-1" x1="154.12" y1="223.89" x2="149.96" y2="219.44"/><line class="cls-1" x1="171.3" y1="223.82" x2="174.4" y2="219.06"/><line class="cls-1" x1="173.16" y1="267.35" x2="176.3" y2="261.42"/><line class="cls-1" x1="174.4" y1="219.06" x2="176.22" y2="261.6"/><line class="cls-1" x1="146.81" y1="253.94" x2="144.98" y2="245.92"/><line class="cls-1" x1="111.16" y1="254.8" x2="112.66" y2="247.3"/><line class="cls-1" x1="144.65" y1="245.94" x2="112.33" y2="247.32"/><line class="cls-1" x1="155.18" y1="267.95" x2="150.88" y2="260.21"/><line class="cls-1" x1="149.96" y1="219.44" x2="150.88" y2="260.21"/><path class="cls-1" d="M154.86,268.22c0-1,5.11-2.12,9.78-2.32s8.48.49,8.53,1.54-3.7,2.06-8.37,2.26S154.9,269.26,154.86,268.22Z"/><path class="cls-1" d="M187.84,270.69"/><ellipse class="cls-1" cx="164.06" cy="269.09" rx="6.34" ry="0.63" transform="matrix(1, -0.04, 0.04, 1, -11.33, 7.25)"/><line class="cls-1" x1="151.21" y1="260.19" x2="147.25" y2="260.36"/><line class="cls-1" x1="147.4" y1="267.79" x2="148.32" y2="273.7"/><polygon class="cls-1" points="143.78 264.14 144.2 274.04 131.97 273.9 131.58 264.67 143.78 264.14"/><path class="cls-1" d="M159.25,251.09"/><path class="cls-1" d="M163.72,255.2"/><path class="cls-1" d="M163.35,246.62"/><line class="cls-1" x1="174.23" y1="218.9" x2="149.79" y2="219.28"/><line class="cls-1" x1="309.73" y1="117.21" x2="276.28" y2="117.4"/><line class="cls-1" x1="277.07" y1="168.66" x2="276.28" y2="117.4"/><line class="cls-1" x1="309.98" y1="117.28" x2="310.37" y2="203.83"/><line class="cls-1" x1="259.55" y1="205.34" x2="310.37" y2="203.83"/><line class="cls-1" x1="277.07" y1="168.66" x2="260.01" y2="169.64"/><line class="cls-1" x1="259.55" y1="205.34" x2="260.01" y2="169.64"/><line class="cls-1" x1="265.15" y1="119.86" x2="276.28" y2="117.4"/><line class="cls-1" x1="261.76" y1="133.22" x2="276.24" y2="131.94"/><line class="cls-1" x1="265.15" y1="119.86" x2="265.06" y2="133.08"/><line class="cls-1" x1="262.07" y1="140.47" x2="261.76" y2="133.22"/><line class="cls-1" x1="228.57" y1="145.21" x2="270.75" y2="144.48"/><line class="cls-1" x1="271.27" y1="160.48" x2="228.61" y2="161.73"/><path class="cls-1" d="M228.23,144.89a33.36,33.36,0,0,0-1.28,8.69c0,3.43.24,5.56,1.67,8.14"/><line class="cls-1" x1="228.62" y1="161.73" x2="224.11" y2="164.56"/><line class="cls-1" x1="228.57" y1="145.21" x2="223.78" y2="141.45"/><line class="cls-1" x1="271.5" y1="144.7" x2="265.37" y2="140.33"/><line class="cls-1" x1="223.78" y1="141.45" x2="265.37" y2="140.33"/><line class="cls-1" x1="260.01" y1="169.64" x2="248.08" y2="168.83"/><line class="cls-1" x1="259.55" y1="205.34" x2="248.06" y2="199.23"/><line class="cls-1" x1="248.08" y1="168.83" x2="248.06" y2="199.23"/><line class="cls-1" x1="272.15" y1="159.87" x2="267.67" y2="163.36"/><line class="cls-1" x1="224.11" y1="164.57" x2="267.67" y2="163.37"/><path class="cls-1" d="M271.5,160.23c-1,0-2.09-4.41-2.26-8.44s.54-7.34,1.58-7.39,2,3.19,2.21,7.23S272.55,160.18,271.5,160.23Z"/><path class="cls-1" d="M274,128.48"/><ellipse class="cls-1" cx="272.43" cy="152.3" rx="0.63" ry="5.91" transform="translate(-6.25 11.77) rotate(-2.45)"/><line class="cls-1" x1="262.4" y1="163.59" x2="262.59" y2="168.21"/><polygon class="cls-1" points="266.8 173.89 276.12 173.49 276.55 185.45 267.32 186.09 266.8 173.89"/><path class="cls-1" d="M254.44,157.07"/><path class="cls-1" d="M258.54,152.6"/><path class="cls-1" d="M250,153"/><line class="cls-1" x1="223.78" y1="141.45" x2="224.11" y2="164.56"/><line class="cls-1" x1="262.59" y1="168.21" x2="248.08" y2="168.83"/><line class="cls-1" x1="271.23" y1="169.16" x2="262.59" y2="168.21"/><line class="cls-1" x1="122.48" y1="0.25" x2="122.78" y2="35.41"/><line class="cls-1" x1="176.98" y1="35.73" x2="122.77" y2="35.41"/><line class="cls-1" x1="122.48" y1="0.25" x2="213.14" y2="0.49"/><line class="cls-1" x1="213.5" y1="55.32" x2="213.14" y2="0.49"/><line class="cls-1" x1="176.98" y1="35.73" x2="177.79" y2="54.86"/><line class="cls-1" x1="213.5" y1="55.32" x2="177.79" y2="54.86"/><line class="cls-1" x1="124.37" y1="41.95" x2="122.75" y2="34.75"/><line class="cls-1" x1="136.53" y1="48.04" x2="136.66" y2="35.47"/><line class="cls-1" x1="124.37" y1="41.95" x2="136.28" y2="42.1"/><line class="cls-1" x1="147.11" y1="48.24" x2="136.2" y2="48.05"/><line class="cls-1" x1="150.56" y1="82.46" x2="151.18" y2="40.88"/><line class="cls-1" x1="167.18" y1="40.37" x2="166.41" y2="82.44"/><path class="cls-1" d="M150.9,82.78a29.87,29.87,0,0,0,8.18,1.34c3.23.07,5.23-.2,7.65-1.61"/><line class="cls-1" x1="166.41" y1="82.44" x2="169.28" y2="87.61"/><line class="cls-1" x1="150.56" y1="82.46" x2="146.16" y2="87.93"/><line class="cls-1" x1="151.39" y1="40.13" x2="147.11" y2="48.24"/><line class="cls-1" x1="146.16" y1="87.93" x2="147.11" y2="48.24"/><line class="cls-1" x1="177.79" y1="54.86" x2="173.46" y2="61.66"/><line class="cls-1" x1="213.5" y1="55.32" x2="205.86" y2="62.26"/><line class="cls-1" x1="173.46" y1="61.66" x2="205.86" y2="62.25"/><line class="cls-1" x1="166.56" y1="39.48" x2="170.14" y2="45.94"/><line class="cls-1" x1="169.28" y1="87.61" x2="170.14" y2="45.94"/><path class="cls-1" d="M166.92,40.13c0,1-4.41,2.09-8.44,2.26s-7.34-.54-7.39-1.58,3.19-2,7.23-2.21S166.88,39.08,166.92,40.13Z"/><path class="cls-1" d="M135.18,37.6"/><ellipse class="cls-1" cx="158.99" cy="39.2" rx="5.91" ry="0.63" transform="translate(-1.53 6.82) rotate(-2.45)"/><line class="cls-1" x1="169.81" y1="45.95" x2="173.44" y2="45.8"/><polygon class="cls-1" points="180.38 48.1 180.59 37.52 192.55 37.84 192.6 48.34 180.38 48.1"/><path class="cls-1" d="M163.77,57.2"/><path class="cls-1" d="M159.3,53.09"/><path class="cls-1" d="M159.66,61.67"/><line class="cls-1" x1="146.16" y1="87.93" x2="169.28" y2="87.61"/><line class="cls-1" x1="173.44" y1="45.8" x2="173.46" y2="61.66"/><line class="cls-1" x1="176.32" y1="35.76" x2="173.44" y2="45.8"/><circle class="cls-1" cx="154.69" cy="155.97" r="22.78" transform="translate(-6.52 6.74) rotate(-2.45)"/><circle class="cls-2" cx="154.69" cy="155.97" r="4.95" transform="translate(-6.52 6.74) rotate(-2.45)"/></g></g></svg>