<svg xmlns="http://www.w3.org/2000/svg" viewBox="0 0 272.47 272.54" preserveAspectRatio="xMinYMin meet"><defs><style>.cls-1{fill:none;}.cls-1,.cls-2{stroke:#000;stroke-miterlimit:10;stroke-width:0.5px;}.cls-2{fill:#fff;}</style></defs><title>Asset 4</title><g id="Layer_2" data-name="Layer 2"><g id="black_version" data-name="black version"><path class="cls-1" d="M209.69,228.76A120.62,120.62,0,0,1,115.36,253"/><path class="cls-1" d="M235,67.23A120.5,120.5,0,0,1,252,163.18"/><path class="cls-1" d="M59.94,40.45A120.47,120.47,0,0,1,169.4,19"/><path class="cls-1" d="M45.56,214.56A120.56,120.56,0,0,1,17.4,109.85"/><line class="cls-1" x1="0.12" y1="100.86" x2="27.51" y2="115.11"/><line class="cls-1" x1="51.07" y1="72.34" x2="27.64" y2="114.85"/><line class="cls-1" x1="0.38" y1="101" x2="37.96" y2="28.73"/><line class="cls-1" x1="81.9" y1="52.58" x2="38.09" y2="28.47"/><line class="cls-1" x1="51.07" y1="72.34" x2="67.51" y2="80.89"/><line class="cls-1" x1="81.9" y1="52.58" x2="67.39" y2="80.49"/><line class="cls-1" x1="36.46" y1="114.46" x2="27.51" y2="115.11"/><line class="cls-1" x1="45.29" y1="105.13" x2="34.54" y2="102.86"/><line class="cls-1" x1="36.6" y1="114.2" x2="41.75" y2="104.29"/><line class="cls-1" x1="47.87" y1="100.17" x2="45.16" y2="105.39"/><line class="cls-1" x1="79.36" y1="112.91" x2="44.67" y2="94.86"/><line class="cls-1" x1="51.72" y1="81.3" x2="86.94" y2="99.61"/><path class="cls-1" d="M79.1,112.77a33.64,33.64,0,0,0,7.58-13.29"/><line class="cls-1" x1="86.68" y1="99.48" x2="91.96" y2="98.25"/><line class="cls-1" x1="79.1" y1="112.77" x2="81.4" y2="117.28"/><line class="cls-1" x1="44.67" y1="94.86" x2="47.85" y2="99.92"/><line class="cls-1" x1="81.4" y1="117.28" x2="47.74" y2="99.78"/><line class="cls-1" x1="66.73" y1="80.48" x2="73.26" y2="83.22"/><line class="cls-1" x1="81.9" y1="52.58" x2="86.56" y2="57.65"/><line class="cls-1" x1="73.26" y1="83.22" x2="86.56" y2="57.65"/><line class="cls-1" x1="52.24" y1="81.57" x2="58.57" y2="80.88"/><line class="cls-1" x1="91.96" y1="98.25" x2="58.31" y2="80.74"/><path class="cls-1" d="M51.72,81.3c.86.45-.44,4.66-2.23,8.12s-4,5.9-4.82,5.45-.11-3.62,1.69-7.08S50.86,80.85,51.72,81.3Z"/><path class="cls-1" d="M35.57,104.71"/><ellipse class="cls-1" cx="47.15" cy="87.54" rx="5.29" ry="0.59" transform="translate(-52.27 88.98) rotate(-62.52)"/><line class="cls-1" x1="58.7" y1="80.62" x2="60.33" y2="77.49"/><line class="cls-1" x1="55.77" y1="74.78" x2="50.8" y2="72.86"/><polygon class="cls-2" points="60.8 72.76 52.97 68.69 58.65 59.05 65.96 62.84 60.8 72.76"/><path class="cls-1" d="M63.4,91.35"/><path class="cls-1" d="M58.24,93"/><path class="cls-1" d="M65,96.5"/><line class="cls-1" x1="81.4" y1="117.28" x2="91.86" y2="98.43"/><line class="cls-1" x1="104.18" y1="272.32" x2="119.13" y2="246.45"/><line class="cls-1" x1="77.41" y1="223.42" x2="119.07" y2="246.25"/><line class="cls-1" x1="104.19" y1="272.32" x2="33.8" y2="236.54"/><line class="cls-1" x1="57.64" y1="192.59" x2="33.54" y2="236.4"/><line class="cls-1" x1="77.41" y1="223.42" x2="85.96" y2="206.99"/><line class="cls-1" x1="57.64" y1="192.59" x2="85.56" y2="207.11"/><line class="cls-1" x1="118.98" y1="234.94" x2="119.13" y2="246.45"/><line class="cls-1" x1="110.7" y1="226.65" x2="107.92" y2="239.95"/><line class="cls-1" x1="118.98" y1="234.94" x2="109.85" y2="230.19"/><line class="cls-1" x1="106.26" y1="224.34" x2="110.7" y2="226.65"/><line class="cls-1" x1="117.97" y1="195.13" x2="99.93" y2="229.83"/><line class="cls-1" x1="85.78" y1="222.31" x2="104.68" y2="187.56"/><path class="cls-1" d="M117.84,195.39a33.64,33.64,0,0,0-13.29-7.58"/><line class="cls-1" x1="104.54" y1="187.82" x2="103.31" y2="182.54"/><line class="cls-1" x1="117.84" y1="195.39" x2="122.35" y2="193.1"/><line class="cls-1" x1="99.93" y1="229.83" x2="104.99" y2="226.65"/><line class="cls-1" x1="122.35" y1="193.1" x2="104.84" y2="226.75"/><line class="cls-1" x1="85.55" y1="207.77" x2="87.7" y2="200.77"/><line class="cls-1" x1="57.64" y1="192.59" x2="62.13" y2="187.47"/><line class="cls-1" x1="87.44" y1="200.63" x2="61.87" y2="187.33"/><line class="cls-1" x1="85.78" y1="222.31" x2="85.9" y2="214.42"/><line class="cls-1" x1="103.31" y1="182.54" x2="85.9" y2="214.42"/><path class="cls-1" d="M85.42,222.37c.43-.83,4.89.64,8.58,2.55s6.33,4.15,5.9,5-3.77-.06-7.46-2S85,223.2,85.42,222.37Z"/><path class="cls-1" d="M109.78,238.93"/><ellipse class="cls-1" cx="92.14" cy="227.13" rx="0.56" ry="5.65" transform="translate(-151.89 204.08) rotate(-62.52)"/><line class="cls-1" x1="86.16" y1="214.55" x2="83.03" y2="212.92"/><line class="cls-1" x1="79.85" y1="218.73" x2="77.93" y2="223.69"/><polygon class="cls-2" points="78.67 214.3 74.6 222.13 65.22 216.59 69.02 209.28 78.67 214.3"/><path class="cls-1" d="M96.41,211.1"/><path class="cls-1" d="M98,216.25"/><path class="cls-1" d="M101.57,209.47"/><line class="cls-1" x1="122.28" y1="192.9" x2="103.25" y2="182.34"/><line class="cls-1" x1="272.09" y1="174.6" x2="246.18" y2="159.89"/><line class="cls-1" x1="224.01" y1="199.81" x2="246.18" y2="159.89"/><line class="cls-1" x1="272.25" y1="174.77" x2="234.09" y2="241.77"/><line class="cls-1" x1="194.19" y1="220.35" x2="234.09" y2="241.77"/><line class="cls-1" x1="224.01" y1="199.81" x2="210.4" y2="192.99"/><line class="cls-1" x1="194.19" y1="220.35" x2="210.4" y2="192.99"/><line class="cls-1" x1="236.5" y1="156.84" x2="246.18" y2="159.89"/><line class="cls-1" x1="227.94" y1="165.65" x2="239.69" y2="171.1"/><line class="cls-1" x1="236.5" y1="156.84" x2="230.55" y2="167"/><line class="cls-1" x1="224.95" y1="171.39" x2="227.94" y2="165.65"/><line class="cls-1" x1="196.99" y1="160.16" x2="229.87" y2="178.34"/><line class="cls-1" x1="223.16" y1="190.92" x2="189.68" y2="172.93"/><path class="cls-1" d="M196.86,159.76A29.71,29.71,0,0,0,192,165.9c-1.56,2.63-2.29,4.4-2.33,7"/><line class="cls-1" x1="189.68" y1="172.93" x2="184.94" y2="173.12"/><line class="cls-1" x1="196.99" y1="160.16" x2="194.96" y2="155.12"/><line class="cls-1" x1="230.36" y1="178.84" x2="227.56" y2="172.74"/><line class="cls-1" x1="194.96" y1="155.12" x2="227.56" y2="172.74"/><line class="cls-1" x1="210.4" y1="192.99" x2="201.56" y2="187.06"/><line class="cls-1" x1="194.19" y1="220.35" x2="188.03" y2="210.52"/><line class="cls-1" x1="201.56" y1="187.06" x2="188.03" y2="210.52"/><line class="cls-1" x1="224.12" y1="190.84" x2="219.11" y2="191.55"/><line class="cls-1" x1="184.94" y1="173.12" x2="219.11" y2="191.55"/><path class="cls-1" d="M223.46,190.83c-.83-.43.35-4.33,2-7.52s3.68-5.43,4.51-5,.15,3.37-1.51,6.56S224.29,191.26,223.46,190.83Z"/><path class="cls-1" d="M239.52,167.44"/><ellipse class="cls-1" cx="227.7" cy="185.12" rx="5.27" ry="0.56" transform="translate(-41.6 301.72) rotate(-62.52)"/><line class="cls-1" x1="214.93" y1="189.38" x2="213.03" y2="193.03"/><polygon class="cls-2" points="213.76 199.29 221.13 203.12 216.14 212.54 208.74 208.94 213.76 199.29"/><path class="cls-1" d="M211.68,180.81"/><path class="cls-1" d="M216.84,179.18"/><path class="cls-1" d="M210.06,175.65"/><line class="cls-1" x1="194.96" y1="155.13" x2="184.94" y2="173.12"/><line class="cls-1" x1="213.03" y1="193.03" x2="201.56" y2="187.06"/><line class="cls-1" x1="219.28" y1="197.6" x2="213.03" y2="193.03"/><line class="cls-1" x1="179.9" y1="0.38" x2="164.1" y2="28.37"/><line class="cls-1" x1="205.8" y1="52.71" x2="164.1" y2="28.37"/><line class="cls-1" x1="180.07" y1="0.21" x2="249.38" y2="41.56"/><line class="cls-1" x1="225.29" y1="84.06" x2="249.38" y2="41.56"/><line class="cls-1" x1="205.8" y1="52.71" x2="197.93" y2="67.84"/><line class="cls-1" x1="225.29" y1="84.06" x2="197.93" y2="67.84"/><line class="cls-1" x1="162.43" y1="34.13" x2="164.37" y2="27.85"/><line class="cls-1" x1="169.11" y1="44.23" x2="174.78" y2="34.59"/><line class="cls-1" x1="162.43" y1="34.13" x2="171.55" y2="39.54"/><line class="cls-1" x1="177.18" y1="49.1" x2="168.85" y2="44.1"/><line class="cls-1" x1="164.64" y1="77.04" x2="183.59" y2="45.22"/><line class="cls-1" x1="196.18" y1="51.93" x2="176.89" y2="84.08"/><path class="cls-1" d="M164.76,77.44a26.61,26.61,0,0,0,5.72,4.67c2.46,1.49,4.12,2.17,6.62,2.15"/><line class="cls-1" x1="176.89" y1="84.08" x2="176.81" y2="89.34"/><line class="cls-1" x1="164.64" y1="77.04" x2="158.81" y2="79.32"/><line class="cls-1" x1="184.09" y1="44.73" x2="177.18" y2="49.1"/><line class="cls-1" x1="158.81" y1="79.32" x2="177.18" y2="49.1"/><line class="cls-1" x1="197.93" y1="67.84" x2="191.56" y2="71.16"/><line class="cls-1" x1="225.29" y1="84.06" x2="216.32" y2="86.02"/><line class="cls-1" x1="191.56" y1="71.16" x2="216.32" y2="86.02"/><line class="cls-1" x1="196.09" y1="50.97" x2="195.99" y2="57.55"/><line class="cls-1" x1="176.81" y1="89.34" x2="195.99" y2="57.55"/><path class="cls-1" d="M196.08,51.63c-.43.83-4.33-.35-7.52-2s-5.43-3.68-5-4.51,3.37-.15,6.56,1.51S196.51,50.8,196.08,51.63Z"/><path class="cls-1" d="M172.7,35.58"/><ellipse class="cls-1" cx="190.37" cy="47.39" rx="0.56" ry="5.27" transform="translate(60.49 194.43) rotate(-62.52)"/><line class="cls-1" x1="195.73" y1="57.41" x2="198.6" y2="58.91"/><polygon class="cls-2" points="202.94 63.77 207.8 55.69 216.89 61.26 212.26 69.38 202.94 63.77"/><path class="cls-1" d="M186.06,63.41"/><path class="cls-1" d="M184.44,58.25"/><path class="cls-1" d="M180.91,65"/><line class="cls-1" x1="158.81" y1="79.32" x2="176.81" y2="89.34"/><line class="cls-1" x1="198.6" y1="58.91" x2="191.56" y2="71.16"/><line class="cls-1" x1="205.28" y1="52.44" x2="198.6" y2="58.91"/><circle class="cls-1" cx="135.16" cy="135.63" r="20.29" transform="translate(-47.53 192.97) rotate(-62.52)"/></g></g></svg>